<?xml version="1.0" encoding="utf-8"?>
<!-- Generator: Adobe Illustrator 25.0.1, SVG Export Plug-In . SVG Version: 6.00 Build 0)  -->
<svg version="1.0" id="katman_1" xmlns="http://www.w3.org/2000/svg" xmlns:xlink="http://www.w3.org/1999/xlink" x="0px" y="0px"
	 viewBox="0 0 1287.1 903.1" style="enable-background:new 0 0 1287.1 903.1;" xml:space="preserve">
<style type="text/css">
	.st0{fill:#1D1D1B;}
</style>
<image style="overflow:visible;" width="356" height="383" xlink:href="C9DBF0C0.jpg"  transform="matrix(1 0 0 1 106.5556 243.5556)">
</image>
<g>
	<path class="st0" d="M705.5,550.6H672V418.5l-50.6,73.8h-31.2l-50.6-73.8v132.1h-33.4V357.1h30.1l69.4,104.5l69.7-104.5h30.1V550.6
		z"/>
	<path class="st0" d="M860.2,429.1c11.4,13.7,17.1,31.7,17.1,53.8c0,2-0.1,4.1-0.3,6.4H775.9c0,0.7,0.1,1.5,0.3,2.2
		c1.7,11.1,5.9,19.8,12.6,26.3c6.7,6.5,15.2,9.7,25.3,9.7c13.8,0,28.5-4.1,44-12.2l7.5,20.5c-16.4,12.5-34.2,18.8-53.3,18.8
		c-20.3,0-36.8-7-49.5-21c-12.7-14-19.1-31.3-19.1-52c0-20.8,6.3-38.2,18.9-52.2c12.6-14,29.1-20.9,49.3-20.7
		C832.7,408.5,848.8,415.4,860.2,429.1z M789.1,444.2c-6.2,5.7-10.3,13.4-12.3,22.9h69.1c-3.1-21-14.2-31.5-33.2-31.5
		C803.1,435.6,795.2,438.5,789.1,444.2z"/>
	<path class="st0" d="M1000.7,545.1c-11.1,6.3-22.7,9.4-34.8,9.4s-22.2-3.5-30.1-10.5c-7.9-7-11.9-17.7-11.9-32.1V437h-27.1v-24.6
		h25.7h1.4V364h31v48.4H994V437h-39.3v72.7c0,12.2,6.4,18.2,19.1,18.2c5.9,0,12.5-1.3,19.9-3.9L1000.7,545.1z"/>
	<path class="st0" d="M1157.1,550.6h-31.2v-16c-13.5,13.3-28.7,19.9-45.6,19.9c-11.4,0-21.7-3.3-31-9.8
		c-9.2-6.5-16.3-15.3-21.3-26.4c-5-11.1-7.5-23.3-7.5-36.8c0-20.6,5.6-38,16.9-52c11.2-14,25.5-21,42.8-21c17,0,32.2,6.6,45.6,19.9
		v-16h31.2V550.6z M1106,522c7.4-3.2,14-7.9,19.9-14V455c-5.9-6.1-12.5-10.7-19.9-14c-7.4-3.2-14.4-4.8-21-4.8
		c-10.1,0-18.1,4.1-23.9,12.3c-5.8,8.2-8.7,19.2-8.7,33c0,13.8,2.9,24.8,8.7,33c5.8,8.2,13.8,12.3,23.9,12.3
		C1091.6,526.8,1098.6,525.2,1106,522z"/>
</g>
</svg>
