<?xml version="1.0" encoding="UTF-8" standalone="no"?>
<!-- Created with Inkscape (http://www.inkscape.org/) -->

<svg
   xmlns:dc="http://purl.org/dc/elements/1.1/"
   xmlns:cc="http://creativecommons.org/ns#"
   xmlns:rdf="http://www.w3.org/1999/02/22-rdf-syntax-ns#"
   xmlns:svg="http://www.w3.org/2000/svg"
   xmlns="http://www.w3.org/2000/svg"
   xmlns:sodipodi="http://sodipodi.sourceforge.net/DTD/sodipodi-0.dtd"
   xmlns:inkscape="http://www.inkscape.org/namespaces/inkscape"
   width="107.24445mm"
   height="129.81429mm"
   viewBox="0 0 380 459.97187"
   id="svg3399"
   version="1.1"
   inkscape:version="0.91 r13725"
   sodipodi:docname="Ukrainian_Armed_force_emblem_1992.svg">
  <defs
     id="defs3401" />
  <sodipodi:namedview
     id="base"
     pagecolor="#ffffff"
     bordercolor="#666666"
     borderopacity="1.0"
     inkscape:pageopacity="0.0"
     inkscape:pageshadow="2"
     inkscape:zoom="1.6696672"
     inkscape:cx="190.00002"
     inkscape:cy="229.98593"
     inkscape:document-units="px"
     inkscape:current-layer="layer1"
     showgrid="false"
     showborder="false"
     fit-margin-top="0"
     fit-margin-left="0"
     fit-margin-right="0"
     fit-margin-bottom="0"
     inkscape:window-width="1280"
     inkscape:window-height="975"
     inkscape:window-x="-4"
     inkscape:window-y="-4"
     inkscape:window-maximized="1" />
  <metadata
     id="metadata3404">
    <rdf:RDF>
      <cc:Work
         rdf:about="">
        <dc:format>image/svg+xml</dc:format>
        <dc:type
           rdf:resource="http://purl.org/dc/dcmitype/StillImage" />
        <dc:title></dc:title>
      </cc:Work>
    </rdf:RDF>
  </metadata>
  <g
     inkscape:label="Layer 1"
     inkscape:groupmode="layer"
     id="layer1"
     transform="translate(-107.14286,-325.2334)">
    <g
       id="g3382"
       transform="translate(107.14286,325.2334)">
      <path
         inkscape:connector-curvature="0"
         sodipodi:nodetypes="csc"
         id="path4059"
         d="m 0,250.89377 c 0,115.41114 85.119952,209.07813 190,209.07813 104.88005,0 190,-93.66699 190,-209.07813 L 380,252 380,0 0,0 0,250.89377 Z"
         style="fill:#fce300;fill-opacity:1;fill-rule:nonzero;stroke:none" />
      <path
         inkscape:connector-curvature="0"
         sodipodi:nodetypes="csc"
         id="path4059-1"
         d="m 5,250.46921 c 0,112.91582 82.879952,204.55764 185,204.55764 102.12005,0 185,-91.64182 185,-204.55764 l 0,1.0823 L 375,5 5,5 5,250.46921 Z"
         style="fill:#0057b8;fill-opacity:1;fill-rule:nonzero;stroke:none" />
      <path
         inkscape:connector-curvature="0"
         style="fill:#fce300"
         id="path7306-7"
         d="m 190,28.54082 c -9.32028,10.57656 -15,24.42126 -15,39.61722 0.55232,33.36574 4.6446,66.66376 5,100.0195 0.73986,31.08682 -8.5845,60.28476 -19.92188,88.7673 -3.77774,7.8708 -7.86416,15.57454 -11.95312,23.2858 l -12.03126,-2.42246 c -10.82574,-2.16468 -17.8675,-12.69224 -15.70312,-23.5201 1.89386,-9.47434 10.23132,-16.05338 19.53126,-16.09688 l 4.375,0.46884 -9.76564,-81.5784 C 131.3393,120.7543 112.60116,88.88958 85,68.15804 80.25684,64.59534 75.23124,61.33822 70,58.46866 l 0,289.74398 66.875,0 c 5.00032,27.14982 19.93944,50.80216 40.93748,67.04434 4.99472,3.44316 9.17846,7.9843 12.18752,13.28384 3.00906,-5.29954 7.1928,-9.84068 12.1875,-13.28384 20.99806,-16.24218 35.9372,-39.89452 40.9375,-67.04434 l 66.875,0 0,-289.74398 c -5.23124,2.86956 -10.25684,6.12668 -15,9.68938 -27.60116,20.73154 -46.3393,52.59626 -49.53124,88.9236 l -9.76564,81.5784 4.375,-0.46884 c 9.29994,0.0436 17.63742,6.62254 19.53126,16.09688 2.16438,10.82786 -4.87736,21.35542 -15.70312,23.5201 l -12.03126,2.42246 c -4.08894,-7.71126 -8.17538,-15.415 -11.95312,-23.2858 C 208.5845,228.4623 199.26014,199.26436 200,168.17754 c 0.3554,-33.35574 4.44768,-66.65376 4.99998,-100.0195 0,-15.19596 -5.6797,-29.04066 -14.99998,-39.61722 z M 90,100.19554 c 12.9427,15.19272 21.62884,34.12514 24.21876,54.93246 l 8.04686,67.27888 c -10.2464,5.10198 -18.01414,14.46206 -20.9375,25.78626 l -11.32812,0 0,-147.9976 z m 200,0 0,147.9976 -11.32812,0 c -2.92334,-11.3242 -10.6911,-20.68428 -20.9375,-25.78626 L 265.78126,155.128 C 268.37116,134.32068 277.0573,115.38826 290,100.19554 Z M 190,235.45616 c 5.3724,17.57518 12.76378,34.26394 21.95312,49.77546 C 203.2126,287.88738 195.6055,293.05314 190,300 184.39448,293.05314 176.7874,287.88738 168.04688,285.23162 177.2362,269.7201 184.6276,253.03134 190,235.45616 Z m -100,32.74088 11.32812,0 c 3.57166,13.8052 14.34756,24.71308 28.04688,28.52106 l 9.60936,2.18792 C 136.41132,308.2356 135,318.06526 135,328.20874 l -45,0 0,-60.0117 z m 188.67188,0 11.32812,0 0,60.0117 -45,0 c 0,-10.14348 -1.41132,-19.97314 -3.98436,-29.30272 l 9.60936,-2.18792 c 13.69932,-3.80798 24.47524,-14.71586 28.04688,-28.52106 z M 158.51562,303.51642 C 170.6481,305.23152 180,315.60304 180,328.20874 l -25,0 c 0,-8.57492 1.26998,-16.83852 3.51562,-24.69232 z m 62.96876,0 c 2.24564,7.8538 3.51564,16.1174 3.51564,24.69232 l -25.00002,0 c 0,-12.6057 9.3519,-22.97722 21.48438,-24.69232 z m -64.21876,44.69622 22.73438,0 0,42.11748 C 168.96682,378.7936 160.95198,364.30754 157.26562,348.21264 Z m 42.73438,0 22.73438,0 C 219.04804,364.30754 211.03316,378.7936 200,390.33012 l 0,-42.11748 z" />
    </g>
  </g>
</svg>
